<svg xmlns="http://www.w3.org/2000/svg" width="122" height="31" viewBox="0 0 122 31"><g><g><g><g><g><g><g><path fill="#0090d2" d="M40.775 29.06L25.907.23a.654.654 0 1 0-1.164.6L39.611 29.66a.654.654 0 1 0 1.164-.6z"/></g><g><path fill="#0090d2" d="M21.006.229a.654.654 0 1 0-1.164.6L34.71 29.66a.655.655 0 1 0 1.164-.6z"/></g><g><path fill="#0090d2" d="M21.006 9.733a.655.655 0 0 0-1.164.6L29.81 29.66a.655.655 0 1 0 1.164-.6z"/></g></g><g><g><path fill="#0090d2" d="M20.724-.053a.655.655 0 0 0-.882.282l-1.868 3.623L16.105.23l-.004-.006a.64.64 0 0 0-.05-.076c-.007-.01-.013-.022-.02-.031-.02-.023-.04-.042-.062-.062l-.03-.03c-.018-.015-.04-.027-.06-.041-.016-.01-.03-.021-.046-.03l-.01-.006c-.02-.01-.04-.016-.061-.024-.016-.006-.031-.014-.047-.019a.62.62 0 0 0-.083-.018l-.04-.007a.63.63 0 0 0-.087-.002l-.04.001a.646.646 0 0 0-.089.016c-.012.003-.024.004-.036.008a.66.66 0 0 0-.1.039l-.017.007-.003.001a.661.661 0 0 0-.102.067l-.007.005a.655.655 0 0 0-.08.078L15.02.11c-.017.022-.032.046-.047.07-.008.013-.018.025-.025.039l-.006.009L.073 29.06a.655.655 0 1 0 1.164.6L15.523 1.958l1.714 3.323L4.974 29.06a.655.655 0 1 0 1.164.6L21.006.828a.655.655 0 0 0-.282-.882z"/></g><g><path fill="#0090d2" d="M25.626-.053a.654.654 0 0 0-.882.282L9.875 29.06a.655.655 0 0 0 1.164.6L25.907.83a.655.655 0 0 0-.281-.883z"/></g><g><path fill="#0090d2" d="M23.801 23.274a5.35 5.35 0 0 1-1.065.566 6.403 6.403 0 0 1-2.34.433c-.819 0-1.628-.15-2.344-.434a5.368 5.368 0 0 1-1.063-.565.655.655 0 1 0-.748 1.075 6.645 6.645 0 0 0 1.33.709 7.617 7.617 0 0 0 2.824.525c.996 0 1.946-.177 2.823-.525a6.648 6.648 0 0 0 1.332-.71.655.655 0 0 0-.749-1.074z"/></g></g></g></g></g><g><g><g><path fill="#1a1d21" d="M52.314 21.863l2.62-6.52 2.62 6.52zm8.53 8.209h5.995L57.816 9.696H52.14l-8.995 20.376h5.88l1.601-3.959h8.616z"/></g><g><path fill="#1a1d21" d="M78.949 29.432c-.96.61-2.387.902-3.843.902-4.046 0-6.403-1.98-6.403-6.025V19.01h-2.3v-4.133h2.3v-4.105h5.53v4.105h3.61v4.133h-3.61v5.24c0 1.164.67 1.804 1.66 1.804.61 0 1.222-.175 1.688-.495z"/></g><g><path fill="#1a1d21" d="M81.074 8.474h5.53v21.598h-5.53z"/></g><g><path fill="#1a1d21" d="M96.705 26.84c-1.31 0-2.067-.668-2.067-1.6 0-.96.64-1.6 2.416-1.6h2.387v1.367c-.437 1.252-1.514 1.834-2.736 1.834zm.203-12.806c-2.474 0-5.152.64-6.956 1.833l1.863 3.755c1.076-.844 2.765-1.368 4.279-1.368 2.182 0 3.26.903 3.347 2.503h-3.144c-4.89 0-7.015 1.805-7.015 4.716 0 2.736 2.096 4.861 5.88 4.861 2.3 0 3.871-.786 4.657-2.3v2.038h5.152v-8.761c0-5.007-2.94-7.277-8.063-7.277z"/></g><g><path fill="#1a1d21" d="M107.213 28.704l1.659-3.784c1.455.902 3.58 1.455 5.501 1.455 1.863 0 2.474-.407 2.474-1.077 0-2.125-9.314.291-9.314-6.025 0-2.97 2.736-5.24 7.684-5.24 2.213 0 4.657.466 6.23 1.34l-1.66 3.754a9.246 9.246 0 0 0-4.54-1.164c-1.863 0-2.533.524-2.533 1.106 0 2.183 9.285-.174 9.285 6.084 0 2.91-2.677 5.181-7.8 5.181-2.679 0-5.444-.67-6.986-1.63z"/></g></g></g></g></g></svg>