<svg xmlns="http://www.w3.org/2000/svg" viewBox="0 0 73.44 96.01"><defs><style>.cls-1{fill:#3e9fbd;}</style></defs><title>Fichier 5</title><g id="Calque_2" data-name="Calque 2"><g id="Calque_1-2" data-name="Calque 1"><path class="cls-1" d="M56.15,21.83c-.11,8.12-2.06,15-7.88,20.41a16.54,16.54,0,0,1-23,0A23.49,23.49,0,0,1,18.12,29.8a37,37,0,0,1,.68-18.16c1.67-6.08,5.69-9.75,12-11A31.28,31.28,0,0,1,39.69.12q13.92,1.23,15.78,15.1C55.79,17.57,56,19.93,56.15,21.83Z"/><path class="cls-1" d="M73.44,86.28c-.13-1.66-.26-3.46-.41-5.4s-.31-4-.48-6.25c-.81-10.51-2.73-16.17-8-19.84a19.33,19.33,0,0,0-1.79-1.09c-.31-.17-.64-.34-1-.5-3.37-1.64-7.77-2.85-13.54-4h0a19.27,19.27,0,0,1-22.68-.08C16.76,50.89,11.09,52.7,7.41,56A12.74,12.74,0,0,0,6,57.33a15.48,15.48,0,0,0-2.18,3.3A24.74,24.74,0,0,0,2.05,66c-.18.82-.35,1.68-.49,2.59-.3,1.82-.52,3.82-.69,6C.61,77.89.39,80.84.19,83.49.13,84.37.06,85.22,0,86a73.37,73.37,0,0,0,73.44.24Z"/></g></g></svg>